<svg xmlns="http://www.w3.org/2000/svg" xmlns:xlink="http://www.w3.org/1999/xlink" viewBox="0,0,256,256" width="50px" height="50px" fill-rule="nonzero"><g fill-opacity="0" fill="#ffff" fill-rule="nonzero" stroke="none" stroke-width="1" stroke-linecap="butt" stroke-linejoin="miter" stroke-miterlimit="10" stroke-dasharray="" stroke-dashoffset="0" font-family="none" font-weight="none" font-size="none" text-anchor="none" style="mix-blend-mode: normal"><path d="M0,256v-256h256v256z" id="bgRectangle"></path></g><g fill="#fff" fill-rule="nonzero" stroke="none" stroke-width="1" stroke-linecap="butt" stroke-linejoin="miter" stroke-miterlimit="10" stroke-dasharray="" stroke-dashoffset="0" font-family="none" font-weight="none" font-size="none" text-anchor="none" style="mix-blend-mode: normal"><g transform="scale(2.56,2.56)"><path d="M35.65039,5.44336c-14.43892,0.07216 -24.51038,12.49746 -25.24609,26.48437c-0.76638,14.55579 11.93943,25.93622 26.45508,26.66211c4.05917,0.20276 7.79238,-0.57992 11.10547,-2.0957l3.61523,4.67383c0.02705,0.33459 0.13788,0.65699 0.32227,0.9375l19.79883,29.99414c0.48369,0.73106 1.38704,1.06199 2.22852,0.81641c5.9337,-1.73287 10.66559,-5.50937 13.05273,-11.58984c0.29042,-0.7402 0.11483,-1.58213 -0.44727,-2.14453l-24.20508,-24.23242l-4.59375,-6.50781c3.40258,-4.60239 5.46563,-10.33883 5.7793,-16.30469c0.77645,-14.7405 -11.9595,-25.93722 -26.45508,-26.66211c-0.4747,-0.02374 -0.94438,-0.03358 -1.41016,-0.03125zM35.66406,9.44336c0.39457,-0.00169 0.79288,0.00721 1.19531,0.02734c5.59846,0.27996 10.82749,2.31962 14.85352,5.58008l-1.38672,1.50195c-0.24707,0.26192 -0.33427,0.63643 -0.22832,0.98055c0.10595,0.34412 0.38871,0.60472 0.74031,0.68231c0.3516,0.07759 0.71777,-0.03982 0.95871,-0.30739l1.41602,-1.53711c0.49544,0.47767 0.96777,0.97435 1.41406,1.49219l-3.4668,2.33984c-0.29628,0.19989 -0.46339,0.54267 -0.43838,0.89919c0.02501,0.35652 0.23834,0.67261 0.55962,0.82918c0.32128,0.15657 0.70169,0.12982 0.9979,-0.07017l3.58008,-2.41797c0.6579,0.92574 1.2413,1.90074 1.73633,2.92188l-2.83789,0.98438c-0.33782,0.11716 -0.58745,0.40567 -0.65484,0.75682c-0.06739,0.35115 0.05772,0.71157 0.32818,0.94546c0.27046,0.23388 0.64516,0.30568 0.98291,0.18834l2.96289,-1.0293c0.87076,2.38933 1.28853,4.98309 1.14453,7.7168c-0.12945,2.4622 -0.59606,4.85887 -1.34375,7.12305l-2.81055,-0.99805c-0.12536,-0.04689 -0.25886,-0.06815 -0.39258,-0.0625c-0.48154,0.02069 -0.87982,0.3819 -0.94731,0.85913c-0.06749,0.47724 0.21501,0.93472 0.67192,1.08813l2.78711,0.99023c-2.37449,5.69581 -6.67432,10.29746 -12.29297,12.41992l-0.40234,-3.02539c-0.062,-0.52136 -0.51659,-0.90601 -1.04102,-0.88086c-0.28195,0.01356 -0.54503,0.14563 -0.72435,0.36364c-0.17931,0.218 -0.25815,0.50163 -0.21706,0.78089l0.44922,3.37695c-1.29461,0.3397 -2.64842,0.5554 -4.05664,0.62695l0.36133,-2.39648c0.05017,-0.3014 -0.0402,-0.60919 -0.24533,-0.83564c-0.20513,-0.22645 -0.50253,-0.3467 -0.8074,-0.32647c-0.47461,0.03101 -0.86173,0.39199 -0.92578,0.86328l-0.40625,2.70117c-0.03938,-0.00175 -0.07773,0.00002 -0.11719,-0.00195c-0.85805,-0.04291 -1.70692,-0.13219 -2.54492,-0.25781l0.50391,-1.73438c0.09408,-0.30879 0.03333,-0.64401 -0.16313,-0.90015c-0.19646,-0.25614 -0.50448,-0.4017 -0.8271,-0.39087c-0.43788,0.01431 -0.81547,0.31195 -0.93164,0.73438l-0.55469,1.91797c-0.77721,-0.17894 -1.54361,-0.38989 -2.29297,-0.63672l0.94727,-1.75391c0.17404,-0.31267 0.16776,-0.6945 -0.01647,-1.00128c-0.18423,-0.30678 -0.51833,-0.49175 -0.87611,-0.48505c-0.3655,0.00709 -0.69802,0.21303 -0.86719,0.53711l-1.07617,1.99414c-1.08809,-0.45565 -2.12344,-0.9993 -3.12305,-1.5918l1.80469,-2.95898c0.19138,-0.30337 0.20563,-0.686 0.03736,-1.00277c-0.16827,-0.31677 -0.4933,-0.51917 -0.85181,-0.53043c-0.36468,-0.01164 -0.70675,0.17624 -0.89258,0.49023l-1.77734,2.91406c-0.78627,-0.55669 -1.54631,-1.144 -2.25195,-1.7832l1.39844,-1.93555c0.22391,-0.30199 0.25955,-0.70405 0.09225,-1.04072c-0.16731,-0.33667 -0.50929,-0.55107 -0.88522,-0.55498c-0.32931,-0.00308 -0.63902,0.15616 -0.82812,0.42578l-1.2168,1.68359c-2.07054,-2.23693 -3.65312,-4.85697 -4.57617,-7.73633l2.67773,-2.06836c0.34342,-0.25878 0.48299,-0.70811 0.34661,-1.11591c-0.13638,-0.40781 -0.51817,-0.68279 -0.94817,-0.68291c-0.22556,0.00016 -0.44443,0.07656 -0.62109,0.2168l-2.00195,1.54492c-0.20263,-1.01742 -0.32205,-2.06134 -0.35547,-3.12695l3.94336,-2.04687c0.4194,-0.20941 0.63707,-0.68202 0.5236,-1.13686c-0.11347,-0.45483 -0.52764,-0.76981 -0.99625,-0.75768c-0.15768,0.00358 -0.31228,0.04441 -0.45117,0.11914l-2.94726,1.5332c0.53808,-7.08008 3.65805,-13.48603 8.62305,-17.54102l2.51367,2.10938c0.42284,0.35543 1.05375,0.30077 1.40918,-0.12207c0.35543,-0.42284 0.30077,-1.05375 -0.12207,-1.40918l-2.14258,-1.79883c1.14641,-0.75708 2.37254,-1.39626 3.67187,-1.9043l0.64258,2.91797c0.07706,0.34894 0.33444,0.63026 0.67517,0.73796c0.34073,0.1077 0.71304,0.02542 0.97666,-0.21584c0.26361,-0.24126 0.37847,-0.60484 0.3013,-0.95376l-0.68945,-3.12305c1.68182,-0.46464 3.46694,-0.72046 5.34375,-0.72852zM47.88672,36.03906c-0.37181,0.03783 -0.70331,0.29163 -0.82031,0.67188c-0.156,0.506 0.12877,1.04422 0.63477,1.19922c0.507,0.155 1.04422,-0.12976 1.19922,-0.63477c0.156,-0.507 -0.12877,-1.04322 -0.63477,-1.19922c-0.1265,-0.039 -0.25497,-0.04972 -0.37891,-0.03711zM43.75977,41.29492c-0.37181,0.03806 -0.70331,0.29433 -0.82031,0.67383c-0.156,0.506 0.12777,1.04422 0.63477,1.19922c0.506,0.155 1.04422,-0.12977 1.19922,-0.63477c0.156,-0.507 -0.12877,-1.04517 -0.63477,-1.20117c-0.1265,-0.039 -0.25497,-0.0498 -0.37891,-0.03711zM49.92188,42.88867c-0.37181,0.03783 -0.70331,0.29358 -0.82031,0.67383c-0.156,0.506 0.12777,1.04422 0.63477,1.19922c0.506,0.155 1.04422,-0.12877 1.19922,-0.63477c0.156,-0.506 -0.12877,-1.04322 -0.63477,-1.19922c-0.1265,-0.039 -0.25497,-0.05167 -0.37891,-0.03906zM55.04297,51.5625l2.87109,4.06641l-3.64258,2.48047l-2.78711,-3.60156c1.27374,-0.86902 2.46187,-1.85651 3.55859,-2.94531zM60.45898,58.73633l22.2168,22.24023c-1.81059,3.79111 -4.63674,6.15852 -8.52148,7.57617l-0.68164,-1.0332l2.46289,-4.32227c0.18199,-0.30885 0.18475,-0.69149 0.00724,-1.00293c-0.17751,-0.31145 -0.50814,-0.50407 -0.86662,-0.50488c-0.36554,-0.00106 -0.70254,0.19739 -0.87891,0.51758l-1.96094,3.44141l-1.58008,-2.39453l2.1543,-3.15625c0.21691,-0.30771 0.24263,-0.71117 0.06656,-1.04394c-0.17608,-0.33277 -0.52411,-0.53846 -0.90054,-0.53223c-0.33023,0.00543 -0.63648,0.17354 -0.81836,0.44922l-1.69336,2.47852l-1.73242,-2.62305l1.3457,-1.02148c0.34683,-0.25605 0.49055,-0.70552 0.35662,-1.1153c-0.13393,-0.40977 -0.51537,-0.68761 -0.94647,-0.68939c-0.22509,-0.00095 -0.44392,0.07406 -0.62109,0.21289l-1.23828,0.94141l-1.22266,-1.85352l1.91602,-2.41797c0.25033,-0.30555 0.29736,-0.72981 0.12004,-1.08277c-0.17732,-0.35296 -0.54578,-0.56848 -0.94035,-0.55004c-0.29407,0.01405 -0.56701,0.15695 -0.74609,0.39063l-1.50977,1.9043l-1.09375,-1.65625l1.13867,-1.79492c0.20513,-0.31479 0.21652,-0.71799 0.02949,-1.04386c-0.18703,-0.32587 -0.54093,-0.51941 -0.91621,-0.50107c-0.32948,0.01614 -0.6298,0.1937 -0.80273,0.47461l-0.65625,1.03516l-5.61914,-8.50977z"></path></g></g></svg>